<svg height="512pt" viewBox="-74 0 512 512" width="512pt" xmlns="http://www.w3.org/2000/svg"><path d="m140.515625 97.78125c-8.699219-8.703125-20.269531-13.492188-32.574219-13.492188-12.304687 0-23.875 4.789063-32.574218 13.492188-17.964844 17.960938-17.964844 47.1875 0 65.148438 8.980468 8.984374 20.773437 13.472656 32.574218 13.472656 11.792969 0 23.59375-4.492188 32.574219-13.472656 17.960937-17.960938 17.960937-47.1875 0-65.148438zm-10.605469 54.542969c-10.285156 10.285156-26.046875 11.835937-37.984375 4.65625l16.679688-16.679688c2.929687-2.929687 2.929687-7.679687 0-10.609375-2.929688-2.925781-7.675781-2.925781-10.605469 0l-16.683594 16.683594c-7.179687-11.9375-5.628906-27.699219 4.65625-37.988281 5.871094-5.867188 13.671875-9.097657 21.96875-9.097657 8.300782 0 16.101563 3.230469 21.96875 9.097657 12.113282 12.113281 12.113282 31.824219 0 43.9375zm0 0"/><path d="m288.632812 162.929688c17.964844-17.960938 17.964844-47.1875 0-65.148438-8.699218-8.703125-20.269531-13.492188-32.574218-13.492188-12.304688 0-23.875 4.789063-32.574219 13.492188-17.960937 17.960938-17.960937 47.1875 0 65.148438 8.980469 8.980468 20.777344 13.472656 32.574219 13.472656s23.59375-4.492188 32.574218-13.472656zm-54.542968-54.542969c5.867187-5.867188 13.671875-9.101563 21.96875-9.101563s16.101562 3.234375 21.96875 9.101563c12.113281 12.113281 12.113281 31.824219 0 43.9375-10.285156 10.285156-26.046875 11.839843-37.988282 4.65625l16.683594-16.683594c2.929688-2.929687 2.929688-7.675781 0-10.605469-2.925781-2.929687-7.675781-2.929687-10.605468 0l-16.683594 16.683594c-7.179688-11.941406-5.628906-27.703125 4.65625-37.988281zm0 0"/><path d="m205.894531 47.253906c0-13.175781-10.71875-23.894531-23.894531-23.894531s-23.894531 10.71875-23.894531 23.894531c0 13.175782 10.71875 23.894532 23.894531 23.894532s23.894531-10.71875 23.894531-23.894532zm-32.789062 0c0-4.90625 3.992187-8.894531 8.894531-8.894531s8.894531 3.988281 8.894531 8.894531c0 4.902344-3.992187 8.894532-8.894531 8.894532s-8.894531-3.992188-8.894531-8.894532zm0 0"/><path d="m56.8125 319.101562v140.605469c0 12.957031 10.539062 23.496094 23.496094 23.496094h203.382812c12.957032 0 23.496094-10.539063 23.496094-23.496094v-140.605469c0-12.957031-10.539062-23.496093-23.496094-23.496093h-203.382812c-12.957032 0-23.496094 10.539062-23.496094 23.496093zm15 0c0-4.683593 3.8125-8.496093 8.496094-8.496093h203.382812c4.683594 0 8.496094 3.8125 8.496094 8.496093v140.605469c0 4.6875-3.8125 8.496094-8.496094 8.496094h-203.382812c-4.683594 0-8.496094-3.808594-8.496094-8.496094zm0 0"/><path d="m105.078125 238.433594c-3.058594-2.792969-7.804687-2.574219-10.59375.488281l-12.796875 14.042969c-2.609375 2.863281-2.609375 7.242187 0 10.105468l12.796875 14.039063c1.480469 1.625 3.507813 2.449219 5.546875 2.449219 1.800781 0 3.613281-.644532 5.046875-1.957032 3.0625-2.789062 3.28125-7.535156.492187-10.59375l-8.191406-8.992187 8.191406-8.988281c2.789063-3.0625 2.570313-7.804688-.492187-10.59375zm0 0"/><path d="m281.824219 238.433594c-3.0625-2.792969-7.804688-2.574219-10.59375.488281l-12.800781 14.042969c-2.609376 2.863281-2.609376 7.242187 0 10.105468l12.800781 14.039063c1.480469 1.625 3.507812 2.449219 5.542969 2.449219 1.804687 0 3.613281-.644532 5.050781-1.957032 3.0625-2.789062 3.28125-7.535156.492187-10.59375l-8.195312-8.992187 8.195312-8.988281c2.789063-3.0625 2.570313-7.804688-.492187-10.59375zm0 0"/><path d="m346.5 232.5h-10.515625v-195c0-20.679688-16.824219-37.5-37.5-37.5h-232.96875c-20.675781 0-37.5 16.820312-37.5 37.5v195h-10.515625c-9.648438 0-17.5 7.851562-17.5 17.5v16.035156c0 9.648438 7.851562 17.5 17.5 17.5h10.515625v190.964844c0 20.679688 16.824219 37.5 37.5 37.5h232.96875c20.675781 0 37.5-16.820312 37.5-37.5v-54c0-4.140625-3.359375-7.5-7.5-7.5s-7.5 3.359375-7.5 7.5v54c0 12.40625-10.09375 22.5-22.5 22.5h-232.96875c-12.40625 0-22.5-10.09375-22.5-22.5v-229.574219c0-13.507812 10.988281-24.496093 24.496094-24.496093h47.902343c4.140626 0 7.5-3.359376 7.5-7.5 0-4.140626-3.359374-7.5-7.5-7.5h-47.902343c-9.246094 0-17.757813 3.195312-24.496094 8.535156v-176.464844c0-12.40625 10.09375-22.5 22.5-22.5h232.96875c12.40625 0 22.5 10.09375 22.5 22.5v176.464844c-6.738281-5.339844-15.25-8.535156-24.496094-8.535156h-149.980469c-4.140624 0-7.5 3.359374-7.5 7.5 0 4.144531 3.359376 7.5 7.5 7.5h149.980469c13.507813 0 24.496094 10.992187 24.496094 24.496093v144.480469c0 4.140625 3.359375 7.5 7.5 7.5s7.5-3.359375 7.5-7.5v-105.871094h10.515625c9.648438 0 17.5-7.851562 17.5-17.5v-16.035156c0-9.648438-7.851562-17.5-17.5-17.5zm-329 36.035156c-1.378906 0-2.5-1.121094-2.5-2.5v-16.035156c0-1.378906 1.121094-2.5 2.5-2.5h10.515625v21.035156zm331.5-2.5c0 1.378906-1.121094 2.5-2.5 2.5h-10.515625v-21.035156h10.515625c1.378906 0 2.5 1.121094 2.5 2.5zm0 0"/></svg>